<?xml version="1.0" standalone="no"?>
<!DOCTYPE svg PUBLIC "-//W3C//DTD SVG 20010904//EN"
 "http://www.w3.org/TR/2001/REC-SVG-20010904/DTD/svg10.dtd">
<svg version="1.0" xmlns="http://www.w3.org/2000/svg"
 width="1242.000000pt" height="2208.000000pt" viewBox="0 0 1242.000000 2208.000000"
 preserveAspectRatio="xMidYMid meet">
<metadata>
Created by potrace 1.15, written by Peter Selinger 2001-2017
</metadata>
<g transform="translate(0.000000,2208.000000) scale(0.100000,-0.100000)"
fill="#000000" stroke="none">
<path d="M2351 21934 c-55 -19 -121 -63 -121 -79 0 -6 9 -20 20 -30 20 -18 21
-18 51 4 40 29 103 51 149 51 46 0 109 -22 149 -51 30 -22 31 -22 51 -4 29 26
25 39 -18 68 -85 56 -193 71 -281 41z"/>
<path d="M625 21928 c-3 -8 -4 -79 -3 -158 l3 -145 40 0 40 0 0 155 0 155 -38
3 c-24 2 -39 -1 -42 -10z"/>
<path d="M5523 21890 c-21 -9 -43 -38 -43 -59 0 -19 35 -12 48 9 15 24 54 26
73 4 18 -22 0 -48 -37 -54 -40 -7 -38 -34 3 -38 42 -4 58 -31 37 -60 -19 -28
-48 -28 -75 -1 -28 28 -60 22 -48 -9 13 -35 70 -55 119 -42 62 17 82 81 36
117 -23 19 -23 20 -5 31 19 12 26 57 11 78 -20 30 -75 41 -119 24z"/>
<path d="M6097 21880 c-14 -11 -28 -33 -32 -49 -7 -33 15 -85 40 -95 30 -11
73 -6 89 10 15 14 16 13 16 -10 0 -28 -31 -66 -53 -66 -7 0 -22 7 -33 15 -21
16 -54 20 -54 6 0 -14 30 -41 56 -51 13 -5 37 -5 59 1 30 9 40 19 57 56 55
125 -50 258 -145 183z"/>
<path d="M10769 21885 c-37 -20 -44 -53 -18 -88 17 -23 17 -28 5 -33 -8 -3
-19 -18 -24 -34 -14 -38 4 -71 49 -88 70 -26 139 26 117 90 -5 14 -16 29 -25
32 -14 6 -14 8 0 24 31 34 25 77 -13 97 -36 18 -57 18 -91 0z"/>
<path d="M10989 21885 c-37 -20 -44 -53 -18 -88 17 -23 17 -28 5 -33 -8 -3
-19 -18 -24 -34 -14 -38 4 -71 49 -88 70 -26 139 26 117 90 -5 14 -16 29 -25
32 -14 6 -14 8 0 24 31 34 25 77 -13 97 -36 18 -57 18 -91 0z"/>
<path d="M5897 21853 c-97 -155 -98 -163 -17 -163 57 0 60 -1 60 -25 0 -20 5
-25 25 -25 20 0 25 5 25 25 0 16 6 25 15 25 8 0 15 9 15 20 0 11 -7 20 -15 20
-12 0 -15 16 -15 80 l0 80 -35 0 c-29 0 -38 -6 -58 -37z"/>
<path d="M6460 21828 c-13 -35 -34 -91 -46 -125 l-23 -63 24 0 c18 0 26 8 35
36 12 34 13 35 58 32 43 -3 47 -6 56 -35 7 -26 14 -33 34 -33 15 0 22 5 20 13
-3 6 -22 63 -44 125 -36 104 -41 112 -65 112 -23 0 -29 -7 -49 -62z"/>
<path d="M6660 21765 c0 -118 1 -125 20 -125 18 0 20 7 20 87 0 48 4 83 8 78
5 -6 22 -43 38 -83 39 -97 56 -95 98 13 l31 80 3 -87 c3 -80 5 -88 22 -88 19
0 20 7 20 126 l0 125 -27 -3 c-24 -3 -31 -13 -62 -90 -19 -48 -37 -85 -41 -83
-4 2 -22 43 -40 90 -31 79 -35 85 -61 85 l-29 0 0 -125z"/>
<path d="M11606 21874 c-12 -11 -16 -36 -16 -94 0 -115 -10 -110 240 -110 250
0 240 -5 240 110 0 115 10 110 -240 110 -176 0 -211 -2 -224 -16z"/>
<path d="M485 21857 c-3 -7 -4 -62 -3 -123 l3 -109 40 0 40 0 0 120 0 120 -38
3 c-25 2 -39 -1 -42 -11z"/>
<path d="M1100 21810 c-39 -39 -38 -126 3 -155 30 -21 80 -19 108 4 32 26 18
38 -22 19 -39 -19 -68 -12 -80 19 -5 13 -9 26 -9 29 0 2 32 4 70 4 39 0 70 4
70 9 0 23 -24 73 -40 81 -30 16 -79 11 -100 -10z"/>
<path d="M1719 21811 c-20 -16 -24 -28 -24 -76 0 -48 4 -60 24 -76 33 -27 86
-25 116 6 19 18 25 35 25 70 0 35 -6 52 -25 70 -30 31 -83 33 -116 6z"/>
<path d="M2365 21817 c-38 -18 -59 -42 -51 -62 9 -25 36 -29 66 -11 36 21 104
21 141 -1 57 -34 89 21 36 61 -35 26 -147 33 -192 13z"/>
<path d="M344 21787 c-3 -8 -4 -47 -2 -88 l3 -74 40 0 40 0 0 85 0 85 -38 3
c-25 2 -39 -1 -43 -11z"/>
<path d="M4310 19810 c-45 -45 -11 -120 53 -120 61 0 94 66 57 113 -27 34 -80
37 -110 7z"/>
<path d="M660 19440 l0 -360 65 0 65 0 0 242 c0 134 4 238 9 233 4 -6 50 -115
101 -242 l92 -233 48 0 48 0 92 233 c51 127 97 236 101 242 5 5 9 -99 9 -233
l0 -242 65 0 65 0 0 360 0 361 -87 -3 -87 -3 -101 -252 c-55 -139 -102 -253
-105 -253 -3 0 -50 115 -105 255 l-100 255 -87 0 -88 0 0 -360z"/>
<path d="M2330 19441 l0 -361 75 0 75 0 0 115 0 115 101 0 c87 0 107 3 155 26
180 85 178 359 -4 441 -29 13 -77 18 -219 21 l-183 4 0 -361z m320 221 c67
-33 88 -129 42 -191 -22 -30 -82 -49 -159 -50 l-53 -1 0 130 0 130 68 0 c44 0
79 -6 102 -18z"/>
<path d="M4023 19784 c-39 -20 -63 -68 -63 -128 l0 -46 -41 0 -40 0 3 -52 3
-53 38 -3 37 -3 0 -210 0 -209 70 0 70 0 0 210 0 210 50 0 50 0 0 55 0 55 -50
0 -50 0 0 34 c0 41 17 56 67 59 38 3 38 3 41 50 l3 47 -78 0 c-50 0 -89 -6
-110 -16z"/>
<path d="M4550 19440 l0 -360 75 0 75 0 0 360 0 360 -75 0 -75 0 0 -360z"/>
<path d="M3515 19619 c-128 -16 -204 -106 -213 -249 -5 -92 8 -146 51 -202 46
-60 104 -90 187 -96 174 -12 283 93 284 274 0 68 -4 89 -28 137 -26 54 -77
105 -121 121 -39 15 -111 22 -160 15z m114 -135 c92 -77 49 -304 -58 -304 -79
0 -121 57 -121 165 0 110 37 165 111 165 26 0 47 -8 68 -26z"/>
<path d="M4999 19619 c-25 -4 -60 -14 -76 -23 -155 -79 -182 -346 -47 -465 88
-78 244 -82 345 -10 27 19 69 85 69 109 0 6 -25 10 -61 10 -54 0 -66 -4 -96
-30 -60 -53 -160 -34 -189 35 -28 67 -34 65 172 65 l187 0 -6 65 c-16 175
-131 269 -298 244z m96 -115 c30 -14 65 -64 65 -93 0 -7 -38 -11 -115 -11 -63
0 -115 2 -115 5 0 25 35 78 62 95 40 24 60 25 103 4z"/>
<path d="M3153 19593 c-17 -16 -36 -37 -42 -48 -9 -17 -10 -13 -11 23 l0 42
-70 0 -70 0 0 -265 0 -265 70 0 70 0 1 158 c0 94 5 171 12 192 15 45 66 73
120 66 l37 -4 0 64 0 64 -43 0 c-32 0 -50 -7 -74 -27z"/>
<path d="M1500 19606 c0 -2 41 -120 90 -262 50 -142 90 -266 90 -275 0 -10
-10 -30 -22 -44 -18 -20 -32 -26 -65 -27 l-43 0 0 -61 0 -60 73 7 c95 8 153
38 189 97 15 24 72 176 126 337 l99 292 -77 0 -77 0 -53 -200 c-30 -110 -56
-200 -60 -200 -3 0 -30 90 -60 200 l-53 200 -79 0 c-43 0 -78 -2 -78 -4z"/>
<path d="M4290 19345 l0 -265 75 0 75 0 0 265 0 265 -75 0 -75 0 0 -265z"/>
<path d="M6511 17618 c-78 -13 -151 -94 -124 -137 14 -20 45 -18 58 5 6 10 22
31 37 46 56 59 158 23 158 -54 0 -45 -14 -63 -147 -199 -160 -164 -157 -171
67 -167 132 3 154 5 164 20 20 33 -7 43 -125 46 l-110 4 96 99 c106 109 141
169 130 222 -19 89 -98 134 -204 115z"/>
<path d="M6942 17618 c-23 -4 -55 -16 -71 -27 -36 -26 -59 -77 -44 -100 14
-20 45 -18 58 5 26 46 54 64 100 64 62 0 100 -35 91 -83 -10 -47 -36 -68 -97
-75 -49 -6 -54 -9 -54 -32 0 -23 4 -25 57 -30 71 -6 108 -36 108 -87 0 -54
-36 -83 -104 -83 -48 0 -58 4 -85 31 -17 17 -31 35 -31 40 0 15 -50 10 -56 -6
-9 -23 15 -73 46 -95 98 -70 268 -33 300 66 24 71 -15 145 -83 160 l-31 6 37
19 c40 21 67 63 67 106 0 34 -31 88 -59 103 -34 18 -103 26 -149 18z"/>
<path d="M5412 17611 c-19 -12 -183 -462 -176 -483 6 -21 49 -25 61 -5 4 6 17
37 29 67 l21 55 98 0 97 0 25 -67 c23 -62 28 -68 53 -68 52 0 51 5 -65 320
-32 85 -64 163 -73 173 -16 18 -48 22 -70 8z m69 -178 c17 -54 34 -104 37
-110 3 -10 -15 -13 -72 -13 -42 0 -76 3 -76 8 0 9 72 212 75 212 2 0 18 -44
36 -97z"/>
<path d="M5742 17608 c-14 -14 -17 -464 -3 -486 4 -8 19 -12 32 -10 l24 3 0
250 c0 243 -1 250 -20 253 -11 1 -26 -3 -33 -10z"/>
<path d="M5896 17465 c-9 -25 -7 -328 3 -343 4 -8 19 -12 32 -10 l24 3 0 180
0 180 -26 3 c-17 2 -29 -3 -33 -13z"/>
<path d="M2255 12979 c-155 -26 -302 -104 -421 -223 -96 -96 -154 -191 -197
-318 -29 -87 -31 -102 -31 -243 0 -141 2 -156 31 -243 43 -127 101 -222 197
-318 96 -95 190 -154 318 -197 l93 -32 3970 0 3970 0 93 32 c128 43 222 102
318 197 96 96 154 191 197 318 29 87 31 102 31 243 0 141 -2 156 -31 243 -43
127 -101 222 -197 318 -96 95 -190 154 -318 197 l-93 32 -3940 1 c-2167 1
-3962 -2 -3990 -7z m7915 -13 c172 -32 286 -92 415 -221 100 -100 145 -169
187 -286 60 -171 60 -356 0 -527 -42 -118 -86 -186 -187 -287 -129 -129 -243
-189 -415 -221 -112 -20 -7798 -20 -7910 0 -172 32 -286 92 -415 221 -100 100
-145 169 -187 286 -60 171 -60 356 0 527 42 118 86 186 187 287 127 127 242
189 410 220 106 20 7806 20 7915 1z"/>
<path d="M6646 12369 c-19 -15 -26 -30 -26 -55 0 -30 -3 -34 -25 -34 -20 0
-25 -5 -25 -25 0 -20 5 -25 25 -25 l25 0 0 -110 0 -110 30 0 30 0 0 110 0 110
30 0 c25 0 30 4 30 25 0 21 -5 25 -31 25 -27 0 -30 3 -27 28 2 21 9 28 31 30
21 3 27 9 27 28 0 21 -5 24 -34 24 -19 0 -45 -9 -60 -21z"/>
<path d="M3820 12190 l0 -180 35 0 35 0 0 180 0 180 -35 0 -35 0 0 -180z"/>
<path d="M5800 12190 l0 -180 35 0 35 0 0 60 0 60 55 0 c31 0 69 7 85 15 56
29 77 109 43 166 -26 44 -69 59 -167 59 l-86 0 0 -180z m186 109 c8 -6 14 -29
14 -50 0 -47 -27 -69 -87 -69 l-43 0 0 71 0 72 51 -6 c28 -4 57 -12 65 -18z"/>
<path d="M4280 12315 c0 -31 -3 -35 -26 -35 -21 0 -25 -4 -22 -22 2 -15 11
-24 26 -26 21 -3 22 -8 22 -93 0 -106 14 -129 80 -129 36 0 40 3 40 24 0 19
-6 25 -27 28 -28 3 -28 4 -31 86 l-3 82 31 0 c25 0 30 4 30 25 0 21 -5 25 -30
25 -28 0 -30 3 -30 35 0 32 -2 35 -30 35 -28 0 -30 -3 -30 -35z"/>
<path d="M5500 12315 c0 -31 -3 -35 -26 -35 -21 0 -25 -4 -22 -22 2 -15 11
-24 26 -26 21 -3 22 -8 22 -93 0 -106 14 -129 80 -129 36 0 40 3 40 24 0 19
-6 25 -27 28 -28 3 -28 4 -31 86 l-3 82 31 0 c25 0 30 4 30 25 0 21 -5 25 -30
25 -28 0 -30 3 -30 35 0 32 -2 35 -30 35 -28 0 -30 -3 -30 -35z"/>
<path d="M4063 12280 c-12 -5 -26 -17 -32 -27 -10 -16 -10 -16 -11 5 0 18 -6
22 -30 22 l-30 0 0 -135 0 -135 30 0 30 0 0 88 c0 101 14 132 59 132 44 0 51
-15 51 -122 l0 -98 35 0 35 0 0 88 c0 120 -12 160 -55 178 -39 16 -51 16 -82
4z"/>
<path d="M4501 12273 c-54 -28 -72 -61 -72 -127 0 -101 45 -142 153 -137 26 1
88 44 88 62 0 14 -53 10 -74 -6 -11 -8 -27 -15 -37 -15 -25 0 -69 39 -69 61 0
17 8 19 96 19 l96 0 -7 37 c-9 48 -31 90 -53 102 -38 20 -87 22 -121 4z"/>
<path d="M4840 12283 c-8 -3 -23 -12 -32 -21 -16 -14 -18 -13 -18 1 0 12 -9
17 -30 17 l-30 0 0 -135 0 -135 30 0 30 0 0 90 c0 102 15 130 71 130 27 0 30
3 27 27 -3 28 -20 37 -48 26z"/>
<path d="M4991 12273 c-54 -28 -72 -61 -72 -127 0 -101 45 -142 153 -137 26 1
88 44 88 62 0 14 -53 10 -74 -6 -11 -8 -27 -15 -37 -15 -25 0 -69 39 -69 61 0
17 8 19 96 19 l96 0 -7 37 c-9 48 -31 90 -53 102 -38 20 -87 22 -121 4z"/>
<path d="M5263 12275 c-53 -23 -70 -78 -33 -115 10 -10 44 -27 75 -36 31 -8
59 -22 62 -30 14 -37 -60 -61 -87 -29 -18 21 -72 20 -68 -1 6 -32 53 -56 107
-56 85 0 136 52 109 110 -10 20 -28 32 -75 47 -75 24 -92 38 -73 60 16 19 64
20 80 0 13 -15 70 -21 70 -7 0 21 -35 52 -68 62 -47 13 -60 12 -99 -5z"/>
<path d="M6230 12283 c-8 -3 -23 -12 -32 -21 -16 -14 -18 -13 -18 1 0 12 -9
17 -30 17 l-30 0 0 -135 0 -135 30 0 30 0 0 90 c0 102 15 130 71 130 27 0 30
3 27 27 -3 28 -20 37 -48 26z"/>
<path d="M6371 12273 c-54 -28 -72 -61 -72 -127 0 -101 45 -142 153 -137 26 1
88 44 88 62 0 14 -53 10 -74 -6 -11 -8 -27 -15 -37 -15 -25 0 -69 39 -69 61 0
17 8 19 96 19 l96 0 -7 37 c-9 48 -31 90 -53 102 -38 20 -87 22 -121 4z"/>
<path d="M6841 12273 c-54 -28 -72 -61 -72 -127 0 -101 45 -142 153 -137 26 1
88 44 88 62 0 14 -53 10 -74 -6 -11 -8 -27 -15 -37 -15 -25 0 -69 39 -69 61 0
17 8 19 96 19 l96 0 -7 37 c-9 48 -31 90 -53 102 -38 20 -87 22 -121 4z"/>
<path d="M7180 12283 c-8 -3 -23 -12 -32 -21 -16 -14 -18 -13 -18 1 0 12 -9
17 -30 17 l-30 0 0 -135 0 -135 30 0 30 0 0 90 c0 102 15 130 71 130 27 0 30
3 27 27 -3 28 -20 37 -48 26z"/>
<path d="M7321 12273 c-54 -28 -72 -61 -72 -127 0 -101 45 -142 153 -137 26 1
88 44 88 62 0 14 -53 10 -74 -6 -11 -8 -27 -15 -37 -15 -25 0 -69 39 -69 61 0
17 8 19 96 19 l96 0 -7 37 c-9 48 -31 90 -53 102 -38 20 -87 22 -121 4z"/>
<path d="M7653 12280 c-12 -5 -26 -17 -32 -27 -10 -16 -10 -16 -11 5 0 18 -6
22 -30 22 l-30 0 0 -135 0 -135 30 0 30 0 0 88 c0 101 14 132 59 132 44 0 51
-15 51 -122 l0 -98 35 0 35 0 0 88 c0 120 -12 160 -55 178 -39 16 -51 16 -82
4z"/>
<path d="M7909 12274 c-48 -20 -70 -61 -70 -130 0 -99 46 -139 154 -135 31 1
87 49 87 75 0 24 -52 21 -68 -4 -18 -29 -76 -27 -96 2 -25 36 -21 104 9 133
31 32 50 31 81 0 26 -26 74 -34 74 -12 0 23 -32 59 -66 73 -41 17 -59 17 -105
-2z"/>
<path d="M8201 12273 c-54 -28 -72 -61 -72 -127 0 -101 45 -142 153 -137 26 1
88 44 88 62 0 14 -53 10 -74 -6 -11 -8 -27 -15 -37 -15 -25 0 -69 39 -69 61 0
17 8 19 96 19 l96 0 -7 37 c-9 48 -31 90 -53 102 -38 20 -87 22 -121 4z"/>
<path d="M8473 12275 c-53 -23 -70 -78 -33 -115 10 -10 44 -27 75 -36 31 -8
59 -22 62 -30 14 -37 -60 -61 -87 -29 -18 21 -72 20 -68 -1 6 -32 53 -56 107
-56 85 0 136 52 109 110 -10 20 -28 32 -75 47 -75 24 -92 38 -73 60 16 19 64
20 80 0 13 -15 70 -21 70 -7 0 21 -35 52 -68 62 -47 13 -60 12 -99 -5z"/>
<path d="M2255 11109 c-155 -26 -302 -104 -421 -223 -96 -96 -154 -191 -197
-318 -29 -87 -31 -102 -31 -243 0 -141 2 -156 31 -243 43 -127 101 -222 197
-318 96 -95 190 -154 318 -197 l93 -32 3970 0 3970 0 93 32 c128 43 222 102
318 197 96 96 154 191 197 318 29 87 31 102 31 243 0 141 -2 156 -31 243 -43
127 -101 222 -197 318 -96 95 -190 154 -318 197 l-93 32 -3940 1 c-2167 1
-3962 -2 -3990 -7z m7915 -13 c172 -32 286 -92 415 -221 100 -100 145 -169
187 -286 60 -171 60 -356 0 -527 -42 -118 -86 -186 -187 -287 -129 -129 -243
-189 -415 -221 -112 -20 -7798 -20 -7910 0 -172 32 -286 92 -415 221 -100 100
-145 169 -187 286 -60 171 -60 356 0 527 42 118 86 186 187 287 127 127 242
189 410 220 106 20 7806 20 7915 1z"/>
<path d="M5350 10330 l0 -190 30 0 30 0 0 190 0 190 -30 0 -30 0 0 -190z"/>
<path d="M7056 10499 c-19 -15 -26 -30 -26 -55 0 -30 -3 -34 -25 -34 -20 0
-25 -5 -25 -25 0 -20 5 -25 25 -25 l25 0 0 -110 0 -110 30 0 30 0 0 110 0 110
30 0 c25 0 30 4 30 25 0 21 -5 25 -31 25 -27 0 -30 3 -27 28 2 21 9 28 31 30
21 3 27 9 27 28 0 21 -5 24 -34 24 -19 0 -45 -9 -60 -21z"/>
<path d="M3400 10320 l0 -180 35 0 35 0 0 60 0 60 55 0 c31 0 69 7 85 15 56
29 77 109 43 166 -26 44 -69 59 -167 59 l-86 0 0 -180z m186 109 c8 -6 14 -29
14 -50 0 -47 -27 -69 -87 -69 l-43 0 0 71 0 72 51 -6 c28 -4 57 -12 65 -18z"/>
<path d="M6200 10320 l0 -180 35 0 35 0 0 60 0 60 55 0 c31 0 69 7 85 15 56
29 77 109 43 166 -26 44 -69 59 -167 59 l-86 0 0 -180z m186 109 c8 -6 14 -29
14 -50 0 -47 -27 -69 -87 -69 l-43 0 0 71 0 72 51 -6 c28 -4 57 -12 65 -18z"/>
<path d="M5630 10445 c0 -31 -3 -35 -26 -35 -21 0 -25 -4 -22 -22 2 -15 11
-24 26 -26 21 -3 22 -8 22 -93 0 -106 14 -129 80 -129 36 0 40 3 40 24 0 19
-6 25 -27 28 -28 3 -28 4 -31 86 l-3 82 31 0 c25 0 30 4 30 25 0 21 -5 25 -30
25 -28 0 -30 3 -30 35 0 32 -2 35 -30 35 -28 0 -30 -3 -30 -35z"/>
<path d="M3781 10403 c-54 -28 -72 -61 -72 -127 0 -101 45 -142 153 -137 26 1
88 44 88 62 0 14 -53 10 -74 -6 -11 -8 -27 -15 -37 -15 -25 0 -69 39 -69 61 0
17 8 19 96 19 l96 0 -7 37 c-9 48 -31 90 -53 102 -38 20 -87 22 -121 4z"/>
<path d="M4110 10413 c-8 -3 -23 -12 -32 -21 -16 -14 -18 -13 -18 1 0 12 -9
17 -30 17 l-30 0 0 -135 0 -135 30 0 30 0 0 90 c0 102 15 130 71 130 27 0 30
3 27 27 -3 28 -20 37 -48 26z"/>
<path d="M4243 10405 c-53 -23 -70 -78 -33 -115 10 -10 44 -27 75 -36 31 -8
59 -22 62 -30 14 -37 -60 -61 -87 -29 -18 21 -72 20 -68 -1 6 -32 53 -56 107
-56 85 0 136 52 109 110 -10 20 -28 32 -75 47 -75 24 -92 38 -73 60 16 19 64
20 80 0 13 -15 70 -21 70 -7 0 21 -35 52 -68 62 -47 13 -60 12 -99 -5z"/>
<path d="M4531 10403 c-52 -27 -72 -61 -73 -120 0 -93 44 -145 126 -145 83 0
129 49 129 137 0 34 -6 64 -17 79 -37 58 -109 79 -165 49z m94 -58 c19 -18 25
-35 25 -67 0 -59 -22 -88 -65 -88 -43 0 -65 29 -65 88 0 32 6 49 25 67 13 14
31 25 40 25 9 0 27 -11 40 -25z"/>
<path d="M4873 10410 c-12 -5 -26 -17 -32 -27 -10 -16 -10 -16 -11 5 0 18 -6
22 -30 22 l-30 0 0 -135 0 -135 30 0 30 0 0 88 c0 101 14 132 59 132 44 0 51
-15 51 -122 l0 -98 35 0 35 0 0 88 c0 120 -12 160 -55 178 -39 16 -51 16 -82
4z"/>
<path d="M5133 10409 c-17 -5 -41 -22 -53 -37 l-22 -27 22 -3 c12 -2 36 4 55
12 45 22 62 20 81 -9 21 -32 11 -45 -34 -46 -86 -1 -139 -43 -127 -99 3 -14
15 -33 27 -42 25 -22 87 -23 114 -3 25 19 34 19 34 0 0 -10 10 -15 30 -15 l30
0 0 94 c0 117 -12 154 -56 172 -38 16 -55 16 -101 3z"/>
<path d="M6640 10413 c-8 -3 -23 -12 -32 -21 -16 -14 -18 -13 -18 1 0 12 -9
17 -30 17 l-30 0 0 -135 0 -135 30 0 30 0 0 90 c0 102 15 130 71 130 27 0 30
3 27 27 -3 28 -20 37 -48 26z"/>
<path d="M6781 10403 c-54 -28 -72 -61 -72 -127 0 -101 45 -142 153 -137 26 1
88 44 88 62 0 14 -53 10 -74 -6 -11 -8 -27 -15 -37 -15 -25 0 -69 39 -69 61 0
17 8 19 96 19 l96 0 -7 37 c-9 48 -31 90 -53 102 -38 20 -87 22 -121 4z"/>
<path d="M7251 10403 c-54 -28 -72 -61 -72 -127 0 -101 45 -142 153 -137 26 1
88 44 88 62 0 14 -53 10 -74 -6 -11 -8 -27 -15 -37 -15 -25 0 -69 39 -69 61 0
17 8 19 96 19 l96 0 -7 37 c-9 48 -31 90 -53 102 -38 20 -87 22 -121 4z"/>
<path d="M7590 10413 c-8 -3 -23 -12 -32 -21 -16 -14 -18 -13 -18 1 0 12 -9
17 -30 17 l-30 0 0 -135 0 -135 30 0 30 0 0 90 c0 102 15 130 71 130 27 0 30
3 27 27 -3 28 -20 37 -48 26z"/>
<path d="M7731 10403 c-54 -28 -72 -61 -72 -127 0 -101 45 -142 153 -137 26 1
88 44 88 62 0 14 -53 10 -74 -6 -11 -8 -27 -15 -37 -15 -25 0 -69 39 -69 61 0
17 8 19 96 19 l96 0 -7 37 c-9 48 -31 90 -53 102 -38 20 -87 22 -121 4z"/>
<path d="M8063 10410 c-12 -5 -26 -17 -32 -27 -10 -16 -10 -16 -11 5 0 18 -6
22 -30 22 l-30 0 0 -135 0 -135 30 0 30 0 0 88 c0 101 14 132 59 132 44 0 51
-15 51 -122 l0 -98 35 0 35 0 0 88 c0 120 -12 160 -55 178 -39 16 -51 16 -82
4z"/>
<path d="M8319 10404 c-48 -20 -70 -61 -70 -130 0 -99 46 -139 154 -135 31 1
87 49 87 75 0 24 -52 21 -68 -4 -18 -29 -76 -27 -96 2 -25 36 -21 104 9 133
31 32 50 31 81 0 26 -26 74 -34 74 -12 0 23 -32 59 -66 73 -41 17 -59 17 -105
-2z"/>
<path d="M8601 10403 c-54 -28 -72 -61 -72 -127 0 -101 45 -142 153 -137 26 1
88 44 88 62 0 14 -53 10 -74 -6 -11 -8 -27 -15 -37 -15 -25 0 -69 39 -69 61 0
17 8 19 96 19 l96 0 -7 37 c-9 48 -31 90 -53 102 -38 20 -87 22 -121 4z"/>
<path d="M8873 10405 c-53 -23 -70 -78 -33 -115 10 -10 44 -27 75 -36 31 -8
59 -22 62 -30 14 -37 -60 -61 -87 -29 -18 21 -72 20 -68 -1 6 -32 53 -56 107
-56 85 0 136 52 109 110 -10 20 -28 32 -75 47 -75 24 -92 38 -73 60 16 19 64
20 80 0 13 -15 70 -21 70 -7 0 21 -35 52 -68 62 -47 13 -60 12 -99 -5z"/>
<path d="M5480 10275 l0 -135 30 0 30 0 0 135 0 135 -30 0 -30 0 0 -135z"/>
<path d="M5780 10403 c0 -4 21 -64 46 -133 50 -139 51 -167 4 -177 -24 -4 -30
-11 -30 -31 0 -23 2 -24 41 -19 22 3 50 14 61 24 23 21 23 20 88 206 l49 137
-33 0 -33 0 -28 -97 c-16 -54 -30 -102 -33 -107 -3 -5 -19 38 -36 95 -31 102
-32 104 -64 107 -17 2 -32 0 -32 -5z"/>
<path d="M2255 9239 c-155 -26 -302 -104 -421 -223 -96 -96 -154 -191 -197
-318 -29 -87 -31 -102 -31 -243 0 -141 2 -156 31 -243 43 -127 101 -222 197
-318 96 -95 190 -154 318 -197 l93 -32 3970 0 3970 0 93 32 c128 43 222 102
318 197 96 96 154 191 197 318 29 87 31 102 31 243 0 141 -2 156 -31 243 -43
127 -101 222 -197 318 -96 95 -190 154 -318 197 l-93 32 -3940 1 c-2167 1
-3962 -2 -3990 -7z m7915 -13 c172 -32 286 -92 415 -221 100 -100 145 -169
187 -286 60 -171 60 -356 0 -527 -42 -118 -86 -186 -187 -287 -129 -129 -243
-189 -415 -221 -112 -20 -7798 -20 -7910 0 -172 32 -286 92 -415 221 -100 100
-145 169 -187 286 -60 171 -60 356 0 527 42 118 86 186 187 287 127 127 242
189 410 220 106 20 7806 20 7915 1z"/>
<path d="M5706 8629 c-19 -15 -26 -30 -26 -55 0 -30 -3 -34 -25 -34 -20 0 -25
-5 -25 -25 0 -20 5 -25 25 -25 l25 0 0 -110 0 -110 30 0 30 0 0 110 0 110 30
0 c25 0 30 4 30 25 0 21 -5 25 -31 25 -27 0 -30 3 -27 28 2 21 9 28 31 30 21
3 27 9 27 28 0 21 -5 24 -34 24 -19 0 -45 -9 -60 -21z"/>
<path d="M5980 8460 l0 -190 30 0 30 0 0 190 0 190 -30 0 -30 0 0 -190z"/>
<path d="M6584 8626 c-42 -19 -64 -52 -64 -99 0 -50 32 -79 113 -102 73 -20
87 -30 87 -60 0 -32 -24 -48 -72 -48 -33 0 -47 6 -64 27 -28 32 -74 36 -74 7
0 -11 14 -33 30 -50 57 -57 172 -52 224 10 63 74 11 150 -117 174 -70 13 -87
72 -27 94 38 13 87 -3 95 -30 4 -13 16 -19 36 -19 39 0 39 32 -1 70 -43 40
-109 51 -166 26z"/>
<path d="M3990 8451 l0 -181 30 0 30 0 0 127 c0 69 3 123 7 119 4 -3 27 -57
52 -119 41 -100 49 -112 70 -112 22 0 30 12 71 112 26 62 50 116 53 120 4 3 7
-51 7 -120 l0 -127 30 0 30 0 0 181 0 180 -41 -3 -41 -3 -51 -127 c-28 -71
-53 -128 -57 -128 -4 0 -29 57 -57 128 l-51 127 -41 3 -41 3 0 -180z"/>
<path d="M4840 8450 l0 -180 35 0 35 0 0 60 0 60 55 0 c31 0 69 7 85 15 56 29
77 109 43 166 -26 44 -69 59 -167 59 l-86 0 0 -180z m186 109 c8 -6 14 -29 14
-50 0 -47 -27 -69 -87 -69 l-43 0 0 71 0 72 51 -6 c28 -4 57 -12 65 -18z"/>
<path d="M7150 8575 c0 -31 -3 -35 -26 -35 -21 0 -25 -4 -22 -22 2 -15 11 -24
26 -26 21 -3 22 -8 22 -93 0 -106 14 -129 80 -129 36 0 40 3 40 24 0 19 -6 25
-27 28 -28 3 -28 4 -31 86 l-3 82 31 0 c25 0 30 4 30 25 0 21 -5 25 -30 25
-28 0 -30 3 -30 35 0 32 -2 35 -30 35 -28 0 -30 -3 -30 -35z"/>
<path d="M7350 8575 c0 -31 -3 -35 -26 -35 -21 0 -25 -4 -22 -22 2 -15 11 -24
26 -26 21 -3 22 -8 22 -93 0 -106 14 -129 80 -129 36 0 40 3 40 24 0 19 -6 25
-27 28 -28 3 -28 4 -31 86 l-3 82 31 0 c25 0 30 4 30 25 0 21 -5 25 -30 25
-28 0 -30 3 -30 35 0 32 -2 35 -30 35 -28 0 -30 -3 -30 -35z"/>
<path d="M5280 8543 c-8 -3 -23 -12 -32 -21 -16 -14 -18 -13 -18 1 0 12 -9 17
-30 17 l-30 0 0 -135 0 -135 30 0 30 0 0 90 c0 102 15 130 71 130 27 0 30 3
27 27 -3 28 -20 37 -48 26z"/>
<path d="M5421 8533 c-52 -27 -72 -61 -73 -120 0 -93 44 -145 126 -145 83 0
129 49 129 137 0 34 -6 64 -17 79 -37 58 -109 79 -165 49z m94 -58 c19 -18 25
-35 25 -67 0 -59 -22 -88 -65 -88 -43 0 -65 29 -65 88 0 32 6 49 25 67 13 14
31 25 40 25 9 0 27 -11 40 -25z"/>
<path d="M6171 8533 c-54 -28 -72 -61 -72 -127 0 -101 45 -142 153 -137 26 1
88 44 88 62 0 14 -53 10 -74 -6 -11 -8 -27 -15 -37 -15 -25 0 -69 39 -69 61 0
17 8 19 96 19 l96 0 -7 37 c-9 48 -31 90 -53 102 -38 20 -87 22 -121 4z"/>
<path d="M6901 8533 c-54 -28 -72 -61 -72 -127 0 -101 45 -142 153 -137 26 1
88 44 88 62 0 14 -53 10 -74 -6 -11 -8 -27 -15 -37 -15 -25 0 -69 39 -69 61 0
17 8 19 96 19 l96 0 -7 37 c-9 48 -31 90 -53 102 -38 20 -87 22 -121 4z"/>
<path d="M7743 8540 c-12 -5 -26 -17 -32 -27 -10 -16 -10 -16 -11 5 0 18 -6
22 -30 22 l-30 0 0 -135 0 -135 30 0 30 0 0 88 c0 101 14 132 59 132 44 0 51
-15 51 -122 l0 -98 35 0 35 0 0 88 c0 120 -12 160 -55 178 -39 16 -51 16 -82
4z"/>
<path d="M7993 8536 c-17 -8 -39 -29 -49 -47 -33 -65 -13 -173 37 -200 31 -16
85 -14 114 5 25 16 25 16 25 -18 0 -56 -61 -85 -106 -51 -10 8 -31 15 -46 15
-39 0 -36 -25 5 -50 59 -37 170 -20 197 29 5 11 10 86 10 170 l0 151 -25 0
c-18 0 -25 -5 -25 -20 0 -21 0 -21 -27 -1 -39 28 -73 33 -110 17z m109 -63
c13 -11 18 -30 18 -64 0 -39 -4 -51 -26 -68 -34 -27 -50 -26 -79 4 -29 29 -34
88 -9 123 18 27 69 30 96 5z"/>
<path d="M8293 8535 c-53 -23 -70 -78 -33 -115 10 -10 44 -27 75 -36 31 -8 59
-22 62 -30 14 -37 -60 -61 -87 -29 -18 21 -72 20 -68 -1 6 -32 53 -56 107 -56
85 0 136 52 109 110 -10 20 -28 32 -75 47 -75 24 -92 38 -73 60 16 19 64 20
80 0 13 -15 70 -21 70 -7 0 21 -35 52 -68 62 -47 13 -60 12 -99 -5z"/>
<path d="M4420 8533 c0 -4 21 -64 46 -133 50 -139 51 -167 4 -177 -24 -4 -30
-11 -30 -31 0 -23 2 -24 41 -19 22 3 50 14 61 24 23 21 23 20 88 206 l49 137
-33 0 -33 0 -28 -97 c-16 -54 -30 -102 -33 -107 -3 -5 -19 38 -36 95 -31 102
-32 104 -64 107 -17 2 -32 0 -32 -5z"/>
<path d="M5850 8405 l0 -135 30 0 30 0 0 135 0 135 -30 0 -30 0 0 -135z"/>
<path d="M7510 8405 l0 -135 30 0 30 0 0 135 0 135 -30 0 -30 0 0 -135z"/>
<path d="M9014 5780 c-96 -30 -179 -128 -190 -226 -17 -138 93 -274 232 -290
138 -17 274 93 290 232 17 144 -97 280 -243 290 -32 2 -72 -1 -89 -6z m188
-85 c62 -44 90 -105 86 -182 -5 -77 -41 -135 -108 -171 -64 -34 -152 -28 -212
13 -62 44 -90 105 -86 182 5 77 41 135 108 171 64 34 152 28 212 -13z"/>
<path d="M3251 5740 c-85 -21 -133 -97 -133 -210 0 -93 27 -150 88 -186 51
-30 134 -35 182 -10 39 20 72 62 72 92 0 34 -15 30 -39 -11 -54 -91 -188 -83
-245 14 -26 46 -27 150 -2 203 48 100 206 105 246 9 14 -35 47 -40 42 -6 -12
74 -119 128 -211 105z"/>
<path d="M6326 5704 c-37 -25 -64 -49 -61 -54 10 -16 24 -12 70 20 l45 31 2
-188 c3 -170 5 -188 21 -191 16 -3 17 12 17 206 0 169 -3 211 -14 215 -7 3
-43 -15 -80 -39z"/>
<path d="M6633 5739 c-68 -20 -108 -110 -101 -228 8 -130 56 -191 152 -191 94
0 154 99 144 239 -10 139 -89 212 -195 180z m112 -55 c31 -33 45 -82 45 -154
0 -111 -42 -180 -110 -180 -70 0 -110 66 -110 182 0 79 24 148 57 167 35 20
92 13 118 -15z"/>
<path d="M7003 5739 c-68 -20 -108 -110 -101 -228 8 -130 56 -191 152 -191 94
0 154 99 144 239 -10 139 -89 212 -195 180z m112 -55 c31 -33 45 -82 45 -154
0 -111 -42 -180 -110 -180 -70 0 -110 66 -110 182 0 79 24 148 57 167 35 20
92 13 118 -15z"/>
<path d="M7373 5739 c-68 -20 -108 -110 -101 -228 8 -130 56 -191 152 -191 94
0 154 99 144 239 -10 139 -89 212 -195 180z m112 -55 c31 -33 45 -82 45 -154
0 -111 -42 -180 -110 -180 -70 0 -110 66 -110 182 0 79 24 148 57 167 35 20
92 13 118 -15z"/>
<path d="M3891 5721 c-14 -14 -21 -34 -21 -61 0 -33 -3 -40 -20 -40 -11 0 -20
-5 -20 -11 0 -6 9 -13 20 -16 19 -5 20 -14 20 -140 0 -123 2 -134 18 -131 15
3 17 19 20 135 l3 132 26 3 c39 4 42 28 4 28 -29 0 -31 3 -31 34 0 35 12 51
43 57 30 6 24 24 -10 27 -22 2 -38 -3 -52 -17z"/>
<path d="M4071 5721 c-14 -14 -21 -34 -21 -61 0 -33 -3 -40 -20 -40 -11 0 -20
-5 -20 -11 0 -6 9 -13 20 -16 19 -5 20 -14 20 -140 0 -123 2 -134 18 -131 15
3 17 19 20 135 l3 132 26 3 c39 4 42 28 4 28 -29 0 -31 3 -31 34 0 35 12 51
43 57 30 6 24 24 -10 27 -22 2 -38 -3 -52 -17z"/>
<path d="M4364 5727 c-2 -7 -3 -100 -2 -207 3 -165 5 -195 18 -195 12 0 16 17
18 83 l3 82 57 0 57 0 48 -85 c27 -47 55 -85 63 -85 24 0 16 26 -31 105 l-44
76 23 9 c38 14 66 58 66 104 0 93 -48 126 -183 126 -62 0 -89 -4 -93 -13z
m182 -27 c38 -15 53 -38 54 -83 0 -27 -7 -45 -25 -62 -21 -22 -33 -25 -100
-25 l-75 0 0 90 0 90 59 0 c33 0 72 -5 87 -10z"/>
<path d="M5047 5694 c-4 -4 -7 -22 -7 -41 0 -26 -4 -33 -19 -33 -30 0 -35 -19
-6 -26 25 -6 25 -6 25 -120 0 -101 2 -116 20 -134 24 -24 80 -27 80 -5 0 8 -8
15 -18 15 -35 0 -42 21 -42 131 l0 108 27 3 c38 4 42 28 4 28 -27 0 -30 3 -33
37 -3 35 -17 51 -31 37z"/>
<path d="M3536 5615 c-10 -26 -7 -186 4 -226 6 -21 21 -44 35 -53 44 -29 126
-17 149 23 8 14 11 12 16 -9 3 -14 12 -25 20 -25 12 0 15 25 17 140 3 137 -3
175 -26 161 -7 -5 -11 -44 -11 -106 0 -55 -5 -110 -11 -123 -22 -48 -101 -63
-135 -26 -16 17 -20 42 -24 137 -3 73 -9 117 -16 119 -6 2 -14 -3 -18 -12z"/>
<path d="M4773 5615 c-36 -15 -58 -49 -48 -73 5 -14 11 -11 34 17 24 29 34 34
70 34 49 0 68 -15 77 -59 5 -29 4 -32 -26 -38 -18 -3 -45 -6 -60 -6 -52 0 -91
-21 -106 -56 -38 -90 78 -153 163 -88 l33 25 0 -25 c0 -16 6 -26 15 -26 13 0
15 20 15 121 0 67 -5 129 -11 141 -12 22 -67 48 -101 48 -13 -1 -37 -7 -55
-15z m137 -176 c0 -43 -47 -89 -92 -89 -64 0 -103 57 -62 90 16 14 70 27 122
29 29 1 32 -1 32 -30z"/>
<path d="M5326 5615 c-8 -21 -8 -258 0 -279 3 -9 12 -16 20 -16 11 0 14 21 14
100 0 116 13 152 61 169 41 14 96 -8 104 -41 3 -13 6 -68 8 -123 2 -81 5 -100
17 -100 13 0 15 20 15 122 0 115 -1 123 -24 147 -32 34 -84 43 -127 22 -19 -9
-38 -24 -42 -33 -5 -14 -8 -12 -12 11 -6 33 -25 45 -34 21z"/>
<path d="M5701 5613 c-63 -31 -91 -144 -54 -220 19 -41 66 -73 106 -73 34 0
82 24 96 47 8 14 10 7 11 -30 0 -38 -5 -53 -25 -72 -33 -34 -93 -34 -133 0
-17 14 -35 25 -42 25 -22 0 -5 -34 29 -57 62 -42 165 -23 196 36 13 25 15 60
13 193 -2 119 -6 162 -16 166 -7 2 -15 -9 -18 -28 l-7 -31 -19 21 c-39 41 -84
49 -137 23z m132 -54 c48 -52 34 -165 -24 -195 -78 -40 -139 11 -139 114 0
108 94 155 163 81z"/>
<path d="M2386 4011 c-3 -4 -49 -11 -103 -15 -54 -4 -100 -12 -104 -17 -3 -5
-29 -12 -58 -16 -33 -4 -47 -9 -39 -14 8 -5 -2 -10 -30 -15 -23 -3 -39 -10
-37 -14 6 -10 -19 -20 -48 -20 -18 0 -19 -2 -7 -10 12 -7 8 -11 -17 -16 -18
-3 -31 -11 -30 -17 2 -11 -4 -13 -38 -16 -8 0 -15 -6 -15 -12 0 -5 5 -7 12 -3
7 4 8 3 4 -4 -4 -7 -16 -12 -27 -12 -10 0 -19 -5 -19 -11 0 -5 6 -7 13 -3 6 4
3 -2 -7 -14 -20 -23 -32 -30 -21 -12 3 6 1 10 -4 10 -6 0 -11 -9 -11 -19 0
-22 -20 -40 -21 -19 0 7 -5 1 -11 -14 -5 -16 -14 -28 -19 -28 -5 0 -9 -7 -9
-15 0 -9 -6 -18 -14 -21 -8 -3 -17 -17 -20 -30 -4 -14 -10 -22 -15 -20 -5 3
-11 -8 -15 -25 -3 -17 -10 -28 -15 -25 -5 3 -12 -13 -15 -36 -5 -32 -9 -39
-16 -28 -7 11 -10 6 -11 -20 -1 -40 -16 -93 -19 -70 -2 8 -6 -19 -11 -60 -4
-41 -12 -76 -18 -78 -17 -6 -14 -154 4 -188 8 -16 15 -54 15 -84 0 -38 3 -50
10 -40 6 10 11 0 16 -38 3 -28 10 -49 15 -46 5 3 12 -13 15 -35 4 -23 10 -38
15 -35 5 3 12 -8 15 -25 4 -17 10 -28 15 -25 5 2 11 -6 15 -20 3 -13 12 -27
20 -30 8 -3 14 -15 14 -26 0 -13 4 -18 11 -15 6 4 13 -2 16 -14 3 -11 10 -18
15 -15 5 3 12 -3 15 -15 3 -12 12 -21 19 -21 8 0 14 -7 14 -15 0 -8 7 -15 15
-15 8 0 15 -7 15 -15 0 -8 9 -15 19 -15 11 0 23 -5 27 -12 4 -7 3 -8 -4 -4 -7
4 -12 3 -12 -3 0 -5 12 -11 28 -13 15 -2 25 -7 23 -13 -3 -5 8 -13 25 -16 16
-3 28 -10 27 -17 -2 -7 8 -12 21 -12 14 0 31 -6 38 -13 7 -8 30 -17 51 -21 21
-4 35 -11 32 -17 -4 -5 9 -9 27 -9 53 0 108 -12 102 -21 -3 -5 1702 -9 3951
-9 2459 0 3954 4 3950 9 -3 6 25 13 65 17 38 3 67 10 65 15 -3 4 11 11 32 15
21 4 44 13 51 21 7 7 24 13 38 13 13 0 23 5 22 12 -2 7 10 14 26 17 17 3 28
11 26 16 -2 6 9 13 26 16 16 4 23 7 16 8 -20 2 -3 21 19 21 10 0 19 7 19 15 0
8 7 15 15 15 8 0 15 7 15 15 0 8 6 15 14 15 7 0 16 9 19 21 3 12 10 18 15 15
5 -3 12 4 15 15 3 12 10 18 16 14 7 -3 11 2 11 15 0 11 6 23 14 26 8 3 17 17
20 30 4 14 10 22 15 20 5 -3 11 8 15 25 3 17 10 28 15 25 5 -3 11 12 15 35 3
22 10 38 15 35 5 -3 12 18 15 46 5 38 10 48 16 38 7 -10 10 2 10 40 0 30 7 68
15 84 18 34 21 182 4 188 -6 2 -14 37 -18 78 -5 41 -9 68 -11 60 -3 -23 -18
30 -19 70 -1 26 -4 31 -11 20 -7 -11 -11 -4 -16 28 -3 23 -10 39 -15 36 -5 -3
-12 8 -15 25 -4 17 -10 28 -15 25 -5 -2 -11 6 -15 20 -3 13 -12 27 -20 30 -8
3 -14 12 -14 21 0 8 -4 15 -9 15 -5 0 -14 12 -19 28 -6 15 -11 21 -11 14 -1
-21 -21 -3 -21 19 0 10 -5 19 -11 19 -5 0 -7 -6 -3 -12 4 -7 -2 -4 -14 6 -23
20 -30 32 -12 21 6 -3 10 -1 10 4 0 6 -9 11 -19 11 -11 0 -23 5 -27 12 -4 7
-3 8 4 4 7 -4 12 -2 12 3 0 6 -7 12 -15 12 -34 3 -40 5 -38 16 1 6 -12 14 -30
17 -25 5 -29 9 -17 16 12 8 11 10 -7 10 -29 0 -54 10 -48 20 2 4 -14 11 -37
14 -32 5 -39 9 -28 16 12 8 9 10 -11 10 -42 0 -89 12 -84 20 3 5 -42 11 -100
15 -58 4 -108 11 -111 16 -7 12 -7651 12 -7658 0z m7802 -87 c293 -61 525
-293 586 -586 84 -407 -179 -808 -586 -892 -70 -14 -449 -16 -3973 -16 -3524
0 -3903 2 -3973 16 -349 72 -602 383 -602 739 0 353 252 665 596 738 60 14
555 15 3972 16 3532 1 3910 -1 3980 -15z"/>
<path d="M6813 3370 c-26 -11 -43 -40 -43 -74 0 -21 -5 -26 -26 -26 -21 0 -25
-4 -22 -22 2 -15 11 -24 26 -26 21 -3 22 -7 22 -113 l0 -109 30 0 30 0 0 109
0 110 28 3 c19 2 28 9 30 26 3 19 -1 22 -27 22 -26 0 -31 4 -31 25 0 25 32 51
50 40 6 -3 10 5 10 19 0 22 -4 26 -27 25 -16 0 -38 -4 -50 -9z"/>
<path d="M7003 3370 c-26 -11 -43 -40 -43 -74 0 -21 -5 -26 -26 -26 -21 0 -25
-4 -22 -22 2 -15 11 -24 26 -26 21 -3 22 -7 22 -113 l0 -109 30 0 30 0 0 109
0 110 28 3 c19 2 28 9 30 26 3 19 -1 22 -27 22 -26 0 -31 4 -31 25 0 25 32 51
50 40 6 -3 10 5 10 19 0 22 -4 26 -27 25 -16 0 -38 -4 -50 -9z"/>
<path d="M6195 3361 c-81 -20 -120 -79 -120 -181 0 -118 58 -185 160 -184 61
0 109 24 130 64 21 40 19 50 -11 50 -16 0 -35 -11 -51 -30 -20 -25 -32 -30
-67 -30 -52 0 -83 29 -97 89 -20 90 26 171 97 171 34 0 84 -35 84 -60 0 -5 14
-10 30 -10 23 0 30 4 30 20 0 23 -53 87 -78 94 -41 11 -79 14 -107 7z"/>
<path d="M3720 3180 l0 -182 106 4 c105 4 106 4 135 36 46 52 33 119 -30 144
-26 10 -26 10 -4 18 47 19 57 83 19 127 -23 27 -29 28 -125 31 l-101 4 0 -182z"/>
<path d="M5230 3180 l0 -180 25 0 25 0 0 127 c0 77 4 123 9 118 5 -6 29 -59
53 -120 39 -97 47 -110 68 -110 21 0 29 13 68 110 24 61 48 114 53 119 5 6 9
-40 9 -117 l0 -127 25 0 25 0 0 180 0 180 -34 0 -34 0 -53 -130 c-29 -71 -56
-130 -60 -130 -4 0 -30 59 -59 130 l-52 130 -34 0 -34 0 0 -180z"/>
<path d="M7260 3180 l0 -180 30 0 30 0 0 70 0 70 35 0 c33 0 36 -3 70 -70 34
-67 37 -70 71 -70 l35 0 -37 71 c-38 71 -38 71 -17 88 29 22 43 54 43 93 0 74
-56 108 -180 108 l-80 0 0 -180z m180 108 c44 -47 11 -98 -68 -106 l-52 -5 0
67 0 66 50 0 c38 0 54 -5 70 -22z"/>
<path d="M4930 3305 c0 -28 -4 -35 -20 -35 -15 0 -20 -7 -20 -25 0 -18 5 -25
20 -25 19 0 20 -7 20 -90 0 -108 14 -130 81 -130 36 0 40 2 37 22 -2 14 -12
24 -28 28 -24 6 -25 10 -28 87 l-3 82 28 3 c20 2 29 9 31 26 3 19 -1 22 -27
22 -29 0 -31 3 -31 35 0 32 -2 35 -30 35 -28 0 -30 -3 -30 -35z"/>
<path d="M7880 3305 c0 -28 -4 -35 -20 -35 -15 0 -20 -7 -20 -25 0 -18 5 -25
20 -25 19 0 20 -7 20 -90 0 -108 14 -130 81 -130 36 0 40 2 37 22 -2 14 -12
24 -28 28 -24 6 -25 10 -28 87 l-3 82 28 3 c20 2 29 9 31 26 3 19 -1 22 -27
22 -29 0 -31 3 -31 35 0 32 -2 35 -30 35 -28 0 -30 -3 -30 -35z"/>
<path d="M4121 3269 c-58 -12 -84 -49 -89 -121 -5 -103 35 -148 133 -148 35 0
52 6 77 29 32 28 33 32 33 105 0 68 -3 78 -26 101 -30 31 -80 44 -128 34z m76
-61 c18 -17 23 -32 23 -74 0 -45 -4 -56 -27 -73 -50 -40 -103 0 -103 79 0 41
4 52 26 69 34 27 52 26 81 -1z"/>
<path d="M4421 3269 c-58 -12 -84 -49 -89 -121 -5 -103 35 -148 133 -148 35 0
52 6 77 29 32 28 33 32 33 105 0 68 -3 78 -26 101 -30 31 -80 44 -128 34z m76
-61 c18 -17 23 -32 23 -74 0 -45 -4 -56 -27 -73 -50 -40 -103 0 -103 79 0 41
4 52 26 69 34 27 52 26 81 -1z"/>
<path d="M4710 3271 c-60 -14 -89 -56 -70 -101 12 -29 34 -41 106 -60 23 -5
44 -17 48 -25 14 -36 -67 -62 -94 -30 -16 19 -70 20 -70 1 0 -8 12 -24 28 -36
23 -19 37 -21 91 -18 74 5 101 27 101 84 0 37 -23 58 -75 69 -51 11 -85 27
-85 39 0 35 65 49 94 21 8 -8 26 -15 39 -15 20 0 24 4 20 21 -10 37 -78 63
-133 50z"/>
<path d="M7652 3270 c-37 -9 -72 -36 -72 -57 0 -17 40 -16 64 2 39 29 96 9 96
-34 0 -15 -11 -19 -60 -24 -70 -6 -105 -25 -112 -61 -6 -31 14 -81 37 -90 33
-12 83 -6 109 15 l26 20 0 -20 c0 -17 6 -21 31 -21 l31 0 -4 110 c-3 101 -5
112 -28 134 -29 27 -71 36 -118 26z"/>
<path d="M8290 3269 c-14 -5 -31 -17 -37 -26 -12 -15 -13 -15 -13 5 0 18 -6
22 -30 22 l-30 0 0 -135 0 -135 30 0 30 0 0 93 c1 115 13 135 82 129 24 -3 38
-55 38 -143 l0 -79 31 0 32 0 -5 111 c-5 100 -8 113 -29 134 -29 28 -66 36
-99 24z"/>
<path d="M5652 3258 c3 -7 25 -70 49 -140 48 -139 47 -160 -5 -166 -18 -2 -26
-9 -26 -23 0 -42 78 -34 112 12 10 14 43 93 72 177 l53 152 -32 0 c-32 0 -32
0 -60 -101 -16 -55 -32 -102 -35 -104 -4 -2 -20 42 -36 98 -30 102 -30 102
-63 105 -25 3 -32 0 -29 -10z"/>
<path d="M6440 3160 c0 -104 1 -112 25 -135 31 -32 96 -34 125 -5 11 11 22 20
25 20 3 0 5 -9 5 -20 0 -15 7 -20 25 -20 l25 0 0 135 0 135 -30 0 -30 0 0 -94
c0 -105 -10 -126 -59 -126 -44 0 -51 15 -51 122 l0 98 -30 0 -30 0 0 -110z"/>
<path d="M8050 3135 l0 -135 30 0 30 0 0 135 0 135 -30 0 -30 0 0 -135z"/>
<path d="M8517 3259 c-64 -37 -62 -204 2 -239 33 -17 99 -12 121 10 l20 20 0
-39 c0 -30 -6 -44 -22 -55 -28 -20 -59 -20 -84 -1 -27 20 -78 20 -70 -1 3 -9
6 -17 6 -20 0 -2 13 -10 30 -19 60 -31 165 -12 190 34 5 11 10 86 10 170 l0
151 -25 0 c-18 0 -25 -5 -25 -20 0 -11 -2 -20 -5 -20 -3 0 -14 9 -25 20 -22
22 -92 27 -123 9z m117 -50 c22 -17 26 -28 26 -69 0 -80 -56 -116 -107 -68
-35 32 -33 109 3 137 15 12 32 21 39 21 7 0 24 -9 39 -21z"/>
</g>
</svg>
